<?xml version="1.0" standalone="no"?><!DOCTYPE svg PUBLIC "-//W3C//DTD SVG 1.1//EN" "http://www.w3.org/Graphics/SVG/1.1/DTD/svg11.dtd"><svg t="1555871445781" class="icon" style="" viewBox="0 0 1490 1024" version="1.1" xmlns="http://www.w3.org/2000/svg" p-id="1783" xmlns:xlink="http://www.w3.org/1999/xlink" width="291.015625" height="200"><defs><style type="text/css"></style></defs><path d="M1450.606177 1.633215H40.026734A39.002734 39.002734 0 0 0 0.972152 40.76557V982.91038a39.002734 39.002734 0 0 0 39.054582 39.132354h1410.579443a39.002734 39.002734 0 0 0 39.054582-39.145316V40.778532c0-21.516962-17.576506-39.145316-39.054582-39.145317zM79.094278 80.221975h1332.120304v668.542379L1025.866532 362.314532a39.04162 39.04162 0 0 0-55.321924 0L569.551392 764.085468l-122.374481-122.620759a39.04162 39.04162 0 0 0-55.334886 0L90.150886 943.778025h-10.732557V80.221975h-0.324051z m559.142887 863.55605H200.807696l218.721215-219.148962L638.237165 943.765063z m110.65681 0l-123.994734-124.253974 373.306329-374.045165 413.009012 413.838582v84.123545H748.893975v0.337012z" fill="#2E323F" p-id="1784"></path><path d="M506.426329 551.145316c108.051443 0 195.933975-88.064 195.933975-196.335797 0-108.271797-87.882532-196.322835-195.933975-196.322835-108.051443 0-195.933975 88.051038-195.933975 196.322835 0 108.271797 87.882532 196.322835 195.933975 196.322835z m0-314.069873c64.771241 0 117.487797 52.846177 117.487798 117.734076 0 64.900861-52.392506 118.058127-117.487798 118.058127s-117.500759-52.833215-117.500759-117.734076c0-64.887899 52.729519-118.045165 117.500759-118.045165z" fill="#2E323F" p-id="1785"></path></svg>