<?xml version="1.0" standalone="no"?><!DOCTYPE svg PUBLIC "-//W3C//DTD SVG 1.1//EN" "http://www.w3.org/Graphics/SVG/1.1/DTD/svg11.dtd"><svg t="1553652505649" class="icon" style="" viewBox="0 0 1024 1024" version="1.1" xmlns="http://www.w3.org/2000/svg" p-id="10864" xmlns:xlink="http://www.w3.org/1999/xlink" width="200" height="200"><defs><style type="text/css"></style></defs><path d="M306.622958 619.694791c125.358079-17.374716 221.908042-124.919081 221.908042-255.04986 0-142.28868-115.312282-257.599939-257.607102-257.599939C128.686383 107.043968 13.323958 222.35625 13.323958 364.644931c0 130.130779 96.543823 237.675144 221.961254 255.04986l0 124.025735L68.450487 743.720525l0 71.228251 166.834726 0 0 166.885891 71.285556 0L306.570769 815.001989l166.828586 0 0-71.230298L306.622958 743.771691 306.622958 619.694791 306.622958 619.694791zM84.720032 364.644931c0-102.930277 83.333964-186.262194 186.203866-186.262194 102.929254 0 186.262194 83.389222 186.262194 186.262194 0 102.875019-83.33294 186.262194-186.262194 186.262194C168.053995 550.906102 84.720032 467.519949 84.720032 364.644931L84.720032 364.644931zM84.720032 364.644931M504.102634 757.319242c0.051165 142.295843 115.420753 257.606079 257.768785 257.548774 142.28868-0.058328 257.542634-115.421776 257.490445-257.710456-0.058328-130.137942-96.66048-237.616816-222.018559-254.992555l-0.109494-261.377986 68.122517 68.174706 50.411133-50.411133L797.123294 140.018987l0 0 0 0L761.425258 104.377232 607.361393 258.602779l50.41011 50.358945 68.175729-68.235081 0.115634 261.380032C600.588129 519.592932 504.044306 627.185392 504.102634 757.319242L504.102634 757.319242zM947.964768 757.157559c0.109494 102.929254-83.274612 186.31336-186.211029 186.371688-102.928231 0.052189-186.262194-83.331917-186.31336-186.210006 0-102.870926 83.275635-186.261171 186.203866-186.31336C864.522334 570.896388 947.907463 654.28254 947.964768 757.157559L947.964768 757.157559zM947.964768 757.157559" p-id="10865"></path></svg>