<?xml version="1.0" standalone="no"?><!DOCTYPE svg PUBLIC "-//W3C//DTD SVG 1.1//EN" "http://www.w3.org/Graphics/SVG/1.1/DTD/svg11.dtd"><svg t="1551352649063" class="icon" style="" viewBox="0 0 1024 1024" version="1.1" xmlns="http://www.w3.org/2000/svg" p-id="2011" xmlns:xlink="http://www.w3.org/1999/xlink" width="200" height="200"><defs><style type="text/css"></style></defs><path d="M712 67.8c-127.3 0-230.5 103.2-230.5 230.5 0 40 10.2 77.7 28.2 110.5L102.1 816.4c-24.6 24.6-24.6 64.9 0 89.5 24.6 24.6 64.9 24.6 89.5 0l16.8-16.8 59.9 59.9c9.2 9.2 24.4 9.2 33.6 0l55.9-55.9c9.2-9.2 9.2-24.4 0-33.6l-59.9-59.9 46.3-46.3 59.9 59.9c9.2 9.2 24.4 9.2 33.6 0l55.9-55.9c9.2-9.2 9.2-24.4 0-33.6l-59.9-59.9 164.9-164.9c33.5 19 72.2 29.8 113.4 29.8 127.3 0 230.5-103.2 230.5-230.5S839.2 67.8 712 67.8z m0 334.9c-57.7 0-104.5-46.8-104.5-104.5S654.2 193.7 712 193.7s104.5 46.8 104.5 104.5S769.7 402.7 712 402.7z" fill="#555555" p-id="2012"></path></svg>