<?xml version="1.0" standalone="no"?><!DOCTYPE svg PUBLIC "-//W3C//DTD SVG 1.1//EN" "http://www.w3.org/Graphics/SVG/1.1/DTD/svg11.dtd"><svg t="1553332144336" class="icon" style="" viewBox="0 0 1024 1024" version="1.1" xmlns="http://www.w3.org/2000/svg" p-id="1091" xmlns:xlink="http://www.w3.org/1999/xlink" width="200" height="200"><defs><style type="text/css"></style></defs><path d="M795.681749 621.714286q0 14.857143-10.857143 25.714285l-256 256q-10.857143 10.857143-25.714286 10.857143t-25.714286-10.857143L221.396034 647.428571q-10.857143-10.857143-10.857143-25.714285t10.857143-25.714286 25.714286-10.857143h512q14.857143 0 25.714286 10.857143t10.857143 25.714286z m0-219.428572q0 14.857143-10.857143 25.714286t-25.714286 10.857143H247.11032q-14.857143 0-25.714286-10.857143T210.538891 402.285714t10.857143-25.714285l256-256q10.857143-10.857143 25.714286-10.857143t25.714286 10.857143l256 256q10.857143 10.857143 10.857143 25.714285z" p-id="1092"></path></svg>